Coordinates
nRows=9
nColumns=38

# SIMM Motion File Header:
name Coordinates
datacolumns 38
datarows 9
otherdata 1
range 0.34399999999999997000 0.35199999999999998000

Units are S.I. units (second, meters, Newtons, ...)
Angles are in degrees.

endheader
time	pelvis_tilt	pelvis_list	pelvis_rotation	pelvis_tx	pelvis_ty	pelvis_tz	hip_flexion_r	hip_adduction_r	hip_rotation_r	knee_angle_r	ankle_angle_r	subtalar_angle_r	mtp_angle_r	hip_flexion_l	hip_adduction_l	hip_rotation_l	knee_angle_l	ankle_angle_l	subtalar_angle_l	mtp_angle_l	lumbar_extension	lumbar_bending	lumbar_rotation	arm_flex_r	arm_add_r	arm_rot_r	elbow_flex_r	pro_sup_r	wrist_flex_r	wrist_dev_r	arm_flex_l	arm_add_l	arm_rot_l	elbow_flex_l	pro_sup_l	wrist_flex_l	wrist_dev_l
      0.34399999999999997000	     -9.26691437698697310000	     -1.26576616740967140000	     -1.63346003302243160000	      0.77392909984584457000	      0.97522077538424301000	     -0.33428351911008297000	      9.97580883366305930000	      5.48908038331312210000	     -5.46975238728118370000	    -35.07980357391981800000	     11.77791610026022600000	     -0.00000000000003630393	     -0.00000000000002621609	     46.51985113759692300000	     -0.43398260328848631000	     -3.11861141895703220000	   -115.86048335541435000000	     -2.54019005801937550000	     -0.00000000000000466409	      0.00000000000002613113	      0.25887660942787377000	      8.60358622176950050000	      5.82734890462425170000	    -10.47816030282668900000	    -20.49576970878382600000	     -0.61908981694217435000	     88.00722255363714900000	     76.46384960546080800000	      0.00000000000002869115	      0.00000000000001247907	    -22.01558810478931200000	    -36.83574691163435900000	     31.02812644935934800000	     85.25382917753249500000	     73.91658611026129200000	     -0.00000000000000001145	      0.00000000000000265261
      0.34499999999999997000	     -9.31603824452891520000	     -1.21788805780248780000	     -1.63629166795789980000	      0.77402724069724949000	      0.97569963364932843000	     -0.33428772455930500000	      9.65329267690633760000	      5.42757437055282480000	     -5.42705516161301650000	    -34.82563431656866700000	     11.40256600017172900000	     -0.00000000000003707987	     -0.00000000000002620334	     46.78867366119250400000	     -0.36401684808541224000	     -3.15607166918479500000	   -115.50348247435538000000	     -2.50931038616157490000	     -0.00000000000000468730	      0.00000000000002657090	      0.34450914546009387000	      8.54927685863797570000	      5.98448656117554020000	    -10.49221619049282800000	    -20.43599958213806300000	     -0.72904375939488197000	     88.26543470158736700000	     76.52688475519187300000	      0.00000000000002918330	      0.00000000000001254312	    -22.21214785339505900000	    -36.94638170225736900000	     31.05966208284634100000	     85.40419567823492700000	     73.83332429845303600000	     -0.00000000000000000506	      0.00000000000000269576
      0.34599999999999997000	     -9.36324358246658230000	     -1.16956789730668830000	     -1.63916885931110870000	      0.77413181135861620000	      0.97618939502035507000	     -0.33429035901791954000	      9.32857709371295840000	      5.36559030657119430000	     -5.38329016774785350000	    -34.56834144515042300000	     11.01645371481364100000	     -0.00000000000003788832	     -0.00000000000002616197	     47.05045307130302500000	     -0.29522406370321858000	     -3.19456682939212210000	   -115.13883203148225000000	     -2.48096906428419040000	     -0.00000000000000470974	      0.00000000000002699642	      0.42834882713727623000	      8.49382803340781930000	      6.14068046707263270000	    -10.50690127648694300000	    -20.37612768178714300000	     -0.83729589841055818000	     88.52297279989365100000	     76.59308755033946200000	      0.00000000000002967436	      0.00000000000001260683	    -22.41105672377817400000	    -37.05761382247216300000	     31.08820209163799200000	     85.55737818744498200000	     73.75056495821280600000	      0.00000000000000000245	      0.00000000000000273605
      0.34699999999999998000	     -9.40866507060416880000	     -1.12084190638778040000	     -1.64209922933665280000	      0.77424260289378533000	      0.97668951334010079000	     -0.33429140808353180000	      9.00192680831499460000	      5.30315349196360670000	     -5.33855680166476530000	    -34.30805064260891900000	     10.61957648758926400000	     -0.00000000000003874165	     -0.00000000000002620079	     47.30534371841866200000	     -0.22765347182782283000	     -3.23406933749930790000	   -114.76666664964920000000	     -2.45518641262613800000	     -0.00000000000000473123	      0.00000000000002743883	      0.51052480486863527000	      8.43728433953305230000	      6.29583614180398590000	    -10.52213598292545900000	    -20.31618649037713800000	     -0.94370136120227022000	     88.77975212242219500000	     76.66245019729046800000	      0.00000000000003016557	      0.00000000000001267127	    -22.61244989746148100000	    -37.16932647246820000000	     31.11360416231786300000	     85.71325908907744000000	     73.66815714044051300000	      0.00000000000000001031	      0.00000000000000279527
      0.34799999999999998000	     -9.45244264099617840000	     -1.07174743367638170000	     -1.64508999339594690000	      0.77435940721946073000	      0.97719942851082298000	     -0.33429086462175178000	      8.67361292010244080000	      5.24029029071744560000	     -5.29295872210242630000	    -34.04489315518830500000	     10.21194058508182000000	     -0.00000000000003963299	     -0.00000000000002625359	     47.55350597838257400000	     -0.16134974576596403000	     -3.27455079772045110000	   -114.38712124206850000000	     -2.43197488876953690000	     -0.00000000000000475234	      0.00000000000002788809	      0.59117445308079564000	      8.37969323837659100000	      6.44986376462392210000	    -10.53785025111447000000	    -20.25620916322327100000	     -1.04812392125143060000	     89.03569161039048700000	     76.73495421272359400000	      0.00000000000003065684	      0.00000000000001273657	    -22.81645817361105300000	    -37.28140082724348000000	     31.13572822543686800000	     85.87172171253770600000	     73.58594638731200600000	      0.00000000000000001853	      0.00000000000000287666
      0.34899999999999998000	     -9.49472074043526430000	     -1.02232281009490760000	     -1.64814779962981260000	      0.77448201776559844000	      0.97771856806704216000	     -0.33428872870811183000	      8.34391199032669380000	      5.17702803283639130000	     -5.24660358144723030000	    -33.77900598822318300000	      9.79356243607241520000	     -0.00000000000004051630	     -0.00000000000002635775	     47.79510531913161500000	     -0.09635290918258070100	     -3.31598198427472110000	   -114.00033074497631000000	     -2.41133871493403440000	     -0.00000000000000477402	      0.00000000000002831860	      0.67044260244978504000	      8.32110482630186430000	      6.60267843693861070000	    -10.55398371593441100000	    -20.19622927013130100000	     -1.15043656320651590000	     89.29071382592226800000	     76.81057082469185100000	      0.00000000000003114865	      0.00000000000001280305	    -23.02320730450956200000	    -37.39371652356454900000	     31.15443693231578600000	     86.03265049289983300000	     73.50377533364454100000	      0.00000000000000002635	      0.00000000000000297887
      0.34999999999999998000	     -9.53564765017996050000	     -0.97260720017448166000	     -1.65127858827130550000	      0.77461023013321118000	      0.97824634865166971000	     -0.33428500754726176000	      8.01310520337869470000	      5.11339492005787650000	     -5.19960274090680570000	    -33.51053212069794500000	      9.36446974228505980000	     -0.00000000000004133934	     -0.00000000000002652146	     48.03031143308039200000	     -0.03269824548474557100	     -3.35833285845082230000	   -113.60642985584353000000	     -2.39327351021509620000	     -0.00000000000000479423	      0.00000000000002875271	      0.74848083689220801000	      8.26157160248600060000	      6.75420046113762140000	    -10.57048589212513800000	    -20.13628053714990800000	     -1.25052205033670180000	     89.54474490809157300000	     76.88926137562408800000	      0.00000000000003164045	      0.00000000000001286982	    -23.23281734651305200000	    -37.50615214492291500000	     31.16959612838194000000	     86.19593112923126900000	     73.42148431265366100000	      0.00000000000000003350	      0.00000000000000307496
      0.35099999999999998000	     -9.57537479637457520000	     -0.92264045173432674000	     -1.65448744155772220000	      0.77474384275207520000	      0.97878217750817920000	     -0.33427971540448820000	      7.68147751311993070000	      5.04941993235925860000	     -5.15207099096494760000	    -33.23962070374712100000	      8.92470279218758480000	     -0.00000000000004215697	     -0.00000000000002668972	     48.25929736647999800000	      0.02958379711213694400	     -3.40157258153490670000	   -113.20555277486835000000	     -2.37776594068772210000	     -0.00000000000000481514	      0.00000000000002916891	      0.82544677597330518000	      8.20114823238867350000	      6.90435559332602990000	    -10.58731633624505300000	    -20.07639659184382800000	     -1.34827346806981190000	     89.79771452850597800000	     76.97097772669373200000	      0.00000000000003213178	      0.00000000000001293581	    -23.44540202696023100000	    -37.61858570882584700000	     31.18107532059398000000	     86.36145074598761100000	     73.33891196880908600000	      0.00000000000000004155	      0.00000000000000317757
      0.35199999999999998000	     -9.61406092984675100000	     -0.87246319797755267000	     -1.65777864151200440000	      0.77488265544394619000	      0.97932544543762323000	     -0.33427287322485516000	      7.34932281590679270000	      4.98513317478477620000	     -5.10412610947990510000	    -32.96642874629959900000	      8.47431604373067590000	     -0.00000000000004296692	     -0.00000000000002684772	     48.48224456615069000000	      0.09046721987420079700	     -3.44566931543275470000	   -112.79783354713121000000	     -2.36479424068257820000	     -0.00000000000000483985	      0.00000000000002956917	      0.90150891092484331000	      8.13989177661463970000	      7.05307521209497780000	    -10.60444574664072300000	    -20.01661064531157700000	     -1.44359475955440560000	     90.04955595833705200000	     77.05566285289712900000	      0.00000000000003262308	      0.00000000000001300105	    -23.66106930015203200000	    -37.73089498162857300000	     31.18874781823579700000	     86.52909792424429700000	     73.25589629537550700000	      0.00000000000000004908	      0.00000000000000329171
